<?xml version="1.0" encoding="utf-8"?>
<!-- Generator: Adobe Illustrator 22.0.0, SVG Export Plug-In . SVG Version: 6.00 Build 0)  -->
<svg version="1.1" id="Layer_1" xmlns="http://www.w3.org/2000/svg" xmlns:xlink="http://www.w3.org/1999/xlink" x="0px" y="0px"
	 viewBox="0 0 83.5 85.7" style="enable-background:new 0 0 83.5 85.7;" xml:space="preserve">
<style type="text/css">
	.st0{fill:#FFFFFF;}
</style>
<g>
	<circle class="st0" cx="62.4" cy="22.4" r="4.6"/>
	<path class="st0" d="M42.1,23.6c-10.6,0-19.2,8.6-19.2,19.2s8.6,19.2,19.2,19.2s19.2-8.6,19.2-19.2S52.7,23.6,42.1,23.6z
		 M42.1,55.2c-6.8,0-12.3-5.5-12.3-12.3c0-6.8,5.5-12.3,12.3-12.3s12.3,5.5,12.3,12.3C54.4,49.7,48.9,55.2,42.1,55.2z"/>
	<g>
		<path class="st0" d="M57.3,81.9H26.2c-12.9,0-23.4-10.5-23.4-23.4V27.3c0-12.9,10.5-23.4,23.4-23.4h31.2
			c12.9,0,23.4,10.5,23.4,23.4v31.2C80.8,71.4,70.3,81.9,57.3,81.9z M26.2,11.2c-8.9,0-16.1,7.2-16.1,16.1v31.2
			c0,8.9,7.2,16.1,16.1,16.1h31.2c8.9,0,16.1-7.2,16.1-16.1V27.3c0-8.9-7.2-16.1-16.1-16.1H26.2z"/>
	</g>
</g>
</svg>
