<?xml version="1.0" encoding="utf-8"?>
<!-- Generator: Adobe Illustrator 22.0.0, SVG Export Plug-In . SVG Version: 6.00 Build 0)  -->
<svg version="1.1" id="Layer_1" xmlns="http://www.w3.org/2000/svg" xmlns:xlink="http://www.w3.org/1999/xlink" x="0px" y="0px"
	 viewBox="0 0 228 54.2" style="enable-background:new 0 0 228 54.2;" xml:space="preserve">
<style type="text/css">
	.st0{fill:none;}
	.st1{fill:#FFFFFF;}
</style>
<g>
	<g>
		<g>
			<path class="st1" d="M57.3,43.1L54.1,3c-5.7,0-10.9,3.5-13,8.8l-1.8,4.5c1.3,0.4,2.4,0.8,3.3,1.3c1.2,0.6,2.3,1.4,3.2,2.2
				l0.1,0.1c0-0.1,0-0.1,0.1-0.2c0.3-0.9,0.6-1.8,0.9-2.7h0.1c0,0.9,0,1.7,0,2.6c0,0.7,0,1.6,0,2.4c0,0.9,0,1.7,0.1,2.5l2.1,27.3
				C54,51.9,57.7,47.8,57.3,43.1z M34.8,42.1c-0.3-0.3-0.8-0.7-1.4-1c-0.7-0.4-1.5-0.7-2.4-1.1c-1-0.4-2.1-0.8-3.1-1.3
				c-0.5-0.2-1-0.5-1.5-0.7l2,4.9l0.2,0.6h5.2c0.2-0.1,0.5-0.2,0.7-0.3c0.2-0.1,0.3-0.2,0.4-0.4C35,42.4,35,42.3,34.8,42.1z
				 M40.3,28.7c-0.5-0.4-1.1-0.8-1.8-1.2c-0.6-0.3-1.4-0.6-2.3-0.9c-0.3-0.1-0.5-0.1-0.8-0.2l-0.3,0.8c-0.3,0.7-0.6,1.5-0.8,2.3
				c0,0,0,0,0,0c0.2,0.1,0.4,0.1,0.5,0.2c1,0.4,2,0.8,3.1,1.3c1.1,0.5,2.1,1,3.1,1.6l1-2.5L40.3,28.7z M20.5,3
				c-5.4,0-9.8,4.1-10.3,9.5L7,51.9c5,0,9.2-3.8,9.5-8.8l1.4-18.5c0-0.8,0.1-1.6,0.1-2.5c0-0.9,0-1.7,0-2.5c0-0.9,0-1.8,0-2.6h0.1
				c0.3,0.9,0.6,1.9,0.9,2.8c0.2,0.7,0.5,1.5,0.8,2.3c0.8-1.4,1.8-2.6,3.2-3.6c0.9-0.6,1.8-1.2,2.9-1.6L20.5,3z"/>
		</g>
	</g>
	<g>
		<g>
			<path class="st1" d="M44.6,38.9c-0.5-1-1.1-1.9-1.9-2.7c-0.7-0.7-1.6-1.4-2.5-1.9c0,0-0.1,0-0.1-0.1c-1-0.6-2-1.1-3-1.5
				c-1-0.5-2-0.9-3-1.2c-0.2-0.1-0.3-0.1-0.5-0.2c-0.8-0.3-1.5-0.6-2.2-1c-0.1-0.1-0.3-0.2-0.4-0.2c-0.6-0.3-1.1-0.7-1.4-1
				c-0.5-0.5-0.7-1-0.7-1.6c0-0.5,0.1-1,0.4-1.4c0.1-0.1,0.1-0.2,0.2-0.3c0.2-0.3,0.5-0.5,0.8-0.7c0.4-0.2,0.9-0.4,1.4-0.6
				c0.5-0.1,1-0.2,1.6-0.2c1,0,2,0.1,2.8,0.3c0.2,0,0.4,0.1,0.7,0.2c1,0.3,1.9,0.6,2.6,1c0.8,0.4,1.6,0.9,2.2,1.5l1.8-3.6
				c0,0,0,0,0,0c0.8-1.6,0.2-3.7-1.5-4.5c0,0,0,0,0,0c-0.9-0.4-1.9-0.9-3.1-1.2c-0.1,0-0.3-0.1-0.4-0.1c-1.4-0.4-3.1-0.6-5-0.6
				c-1.8,0-3.5,0.2-5.1,0.7c-0.6,0.2-1.1,0.3-1.6,0.6c-0.9,0.4-1.7,0.8-2.5,1.4c-1.2,0.9-2.1,1.9-2.7,3.1c-0.2,0.5-0.4,0.9-0.6,1.4
				c-0.3,0.9-0.4,1.8-0.4,2.8c0,1.4,0.2,2.5,0.7,3.6c0.5,1,1.1,1.9,1.9,2.7c0.7,0.7,1.5,1.3,2.3,1.8c0.1,0.1,0.2,0.1,0.3,0.2
				c1,0.6,2,1.1,3,1.6c1,0.5,2,0.9,3,1.3c1,0.4,1.9,0.8,2.6,1.2c0.8,0.4,1.4,0.9,1.9,1.3c0.5,0.5,0.7,1,0.7,1.6c0,0,0,0.1,0,0.1
				c0,0.4-0.1,0.8-0.4,1.2c-0.2,0.4-0.6,0.7-1,1c-0.4,0.3-0.9,0.5-1.4,0.6c-0.5,0.1-1.1,0.2-1.7,0.2c-1.4,0-2.6-0.2-3.8-0.6
				c-1.1-0.4-2.1-0.8-2.9-1.3c-0.9-0.5-1.8-1.2-2.6-1.8l-1.8,2.8c-1.2,1.8-0.7,4.3,1.1,5.4c0,0,0,0,0.1,0c0.1,0,0.1,0.1,0.2,0.1
				c0,0,0,0,0,0c1.1,0.6,2.5,1.2,4.1,1.7c1.6,0.5,3.5,0.8,5.6,0.8c2,0,3.8-0.3,5.4-0.8c1.6-0.5,3-1.3,4.1-2.2c1.1-0.9,2-2,2.6-3.2
				c0.6-1.2,0.9-2.6,0.9-4C45.3,41.2,45.1,40,44.6,38.9z"/>
		</g>
	</g>
</g>
<g>
	<path class="st1" d="M100,39l-0.1-23.6l-7.5,17.2c-0.7,1.7-2.4,2.8-4.2,2.8h0c-1.8,0-3.5-1.1-4.2-2.8l-7.5-17.2v16.7
		c0,3.8-3.1,6.9-6.9,6.9h-1.3V12.2c0-5.2,4.2-9.5,9.5-9.5h0.6l9.9,21.6l7.1-15.6c1.7-3.7,5.4-6.1,9.4-6.1h3.4v29
		c0,4-3.3,7.3-7.3,7.3H100z"/>
	<path class="st1" d="M152.3,20.9c0,10.6-8.4,18.6-19.6,18.6c-11.2,0-19.6-8-19.6-18.6c0-10.6,8.4-18.4,19.6-18.4
		C143.9,2.5,152.3,10.3,152.3,20.9z M122.5,20.9c0,6.1,4.7,10.8,10.3,10.8c5.6,0,10.1-4.7,10.1-10.8c0-6.1-4.5-10.7-10.1-10.7
		C127.2,10.2,122.5,14.8,122.5,20.9z"/>
	<path class="st1" d="M183.4,10.8l-1.2,2.6c-0.1,0.1-0.2,0.2-0.3,0.1c-3.8-2.2-8.5-3.7-11.4-3.7c-2.4,0-4,0.9-4,2.6
		c0,6.3,19.2,2.7,19.2,15.8c0,7.3-6.4,11.1-14.5,11.1c-3.4,0-6.9-0.7-10.1-2c-3.8-1.5-5.4-6-3.6-9.6l0.5-1c0.1-0.1,0.3-0.2,0.4-0.1
		c3.7,3.2,9.2,5.2,12.9,5.2c2.9,0,4.7-1.1,4.7-3.2c0-6.4-19.2-2.6-19.2-15.5c0-6.7,5.8-10.9,14.5-10.9c3.2,0,6.5,0.6,9.5,1.7
		C183.4,5,184.6,8.2,183.4,10.8z"/>
	<path class="st1" d="M198.7,32.4l-1,2.6c-1,2.4-3.3,4-5.9,4h-5.1l14.1-32.7c0.9-2.2,3.1-3.6,5.4-3.6h5.6l12.1,28.7
		c1.5,3.6-1.1,7.6-5.1,7.6h-1.6l-2.6-6.7H198.7z M206.7,11.9l-5.3,13.4h10.5L206.7,11.9z"/>
	<g>
		<g>
			<path class="st1" d="M72.9,45.7L72.3,47c-0.7-0.4-1.6-0.7-2.1-0.7c-0.4,0-0.7,0.2-0.7,0.5c0,1.1,3.4,0.5,3.4,2.8
				c0,1.3-1.2,2-2.6,2c-1.1,0-2.2-0.4-3-1l0.6-1.3c0.7,0.6,1.7,1,2.4,1c0.5,0,0.8-0.2,0.8-0.6c0-1.2-3.4-0.5-3.4-2.8
				c0-1.2,1-2,2.6-2C71.3,45,72.3,45.3,72.9,45.7z"/>
			<path class="st1" d="M78.8,51.6h-1.6v-0.8c-0.3,0.6-0.9,0.9-1.6,0.9c-1.1,0-1.8-0.8-1.8-1.9v-3.2h1.6v2.7c0,0.6,0.3,1,0.8,1
				c0.6,0,1-0.5,1-1.2v-2.5h1.6V51.6z"/>
			<path class="st1" d="M85.6,49.1c0,1.5-0.9,2.5-2.3,2.5c-0.7,0-1.2-0.3-1.5-0.7v0.7h-1.6v-6.9h1.6v2.5c0.4-0.5,0.9-0.7,1.5-0.7
				C84.6,46.5,85.6,47.5,85.6,49.1z M84,49c0-0.8-0.5-1.3-1.1-1.3c-0.7,0-1.1,0.5-1.1,1.3c0,0.8,0.5,1.3,1.1,1.3
				C83.5,50.4,84,49.8,84,49z"/>
			<path class="st1" d="M86.5,51.6v-6.9h1.6v6.9H86.5z"/>
			<path class="st1" d="M91.1,45.1c0,0.5-0.4,0.9-0.8,0.9c-0.5,0-0.8-0.4-0.8-0.9c0-0.5,0.4-0.8,0.8-0.8
				C90.8,44.3,91.1,44.6,91.1,45.1z M89.5,51.6v-5h1.6v5H89.5z"/>
			<path class="st1" d="M100.9,48.4v3.2h-1.6v-2.7c0-0.6-0.3-1-0.9-1c-0.6,0-1,0.5-1,1.2v2.5h-1.6v-2.7c0-0.6-0.3-1-0.9-1
				c-0.6,0-1,0.5-1,1.2v2.5h-1.6v-5H94v0.8c0.3-0.6,0.9-0.9,1.7-0.9c0.8,0,1.4,0.4,1.7,1.1c0.3-0.7,0.9-1.1,1.8-1.1
				C100.2,46.5,100.9,47.2,100.9,48.4z"/>
			<path class="st1" d="M106.5,48.3v3.3h-1.6V51c-0.3,0.4-0.9,0.7-1.5,0.7c-1.1,0-1.7-0.7-1.7-1.6c0-0.9,0.7-1.5,1.9-1.5h1.3v-0.1
				c0-0.5-0.3-0.8-1-0.8c-0.4,0-1,0.1-1.5,0.4l-0.5-1.1c0.8-0.4,1.5-0.6,2.3-0.6C105.7,46.5,106.5,47.2,106.5,48.3z M104.9,49.9
				v-0.4h-1c-0.5,0-0.7,0.2-0.7,0.5c0,0.4,0.3,0.6,0.7,0.6C104.4,50.6,104.8,50.3,104.9,49.9z"/>
			<path class="st1" d="M112.1,47.6l-1.2,0.7c-0.2-0.3-0.6-0.5-1-0.5c-0.6,0-1.1,0.5-1.1,1.3c0,0.8,0.4,1.3,1.1,1.3
				c0.5,0,0.8-0.2,1-0.6l1.2,0.7c-0.4,0.7-1.2,1.2-2.3,1.2c-1.5,0-2.6-1-2.6-2.6c0-1.5,1.1-2.6,2.6-2.6
				C110.9,46.5,111.7,46.9,112.1,47.6z"/>
			<path class="st1" d="M114.6,45.1c0,0.5-0.4,0.9-0.8,0.9c-0.5,0-0.8-0.4-0.8-0.9c0-0.5,0.4-0.8,0.8-0.8
				C114.2,44.3,114.6,44.6,114.6,45.1z M112.9,51.6v-5h1.6v5H112.9z"/>
			<path class="st1" d="M120.9,49.1c0,1.5-1.1,2.6-2.7,2.6c-1.6,0-2.7-1-2.7-2.6s1.1-2.6,2.7-2.6C119.8,46.5,120.9,47.5,120.9,49.1z
				 M117,49.1c0,0.8,0.5,1.3,1.1,1.3c0.7,0,1.1-0.5,1.1-1.3c0-0.8-0.5-1.3-1.1-1.3C117.5,47.8,117,48.3,117,49.1z M118.6,46h-1.2
				l1-1.6l1.5,0.5L118.6,46z"/>
			<path class="st1" d="M126.9,48.4v3.2h-1.6v-2.7c0-0.6-0.3-1-0.9-1c-0.6,0-1,0.4-1,1v2.7h-1.6v-5h1.6v0.8c0.4-0.6,0.9-0.9,1.7-0.9
				C126.2,46.5,126.9,47.2,126.9,48.4z"/>
			<path class="st1" d="M130.1,49.2v-1h2.5v1H130.1z"/>
			<path class="st1" d="M135.9,51.6v-6.5h1.7v6.5H135.9z"/>
			<path class="st1" d="M147.4,48.4v3.2h-1.6v-2.7c0-0.6-0.3-1-0.9-1c-0.6,0-1,0.5-1,1.2v2.5h-1.6v-2.7c0-0.6-0.3-1-0.9-1
				c-0.6,0-1,0.5-1,1.2v2.5h-1.6v-5h1.6v0.8c0.3-0.6,0.9-0.9,1.7-0.9c0.8,0,1.4,0.4,1.7,1.1c0.3-0.7,0.9-1.1,1.8-1.1
				C146.7,46.5,147.4,47.2,147.4,48.4z"/>
			<path class="st1" d="M154.1,49.1c0,1.5-0.9,2.5-2.3,2.5c-0.7,0-1.2-0.3-1.5-0.7v2.5h-1.6v-6.8h1.6v0.7c0.4-0.5,0.9-0.7,1.5-0.7
				C153.2,46.5,154.1,47.5,154.1,49.1z M152.5,49c0-0.8-0.5-1.3-1.1-1.3c-0.7,0-1.1,0.5-1.1,1.3c0,0.8,0.5,1.3,1.1,1.3
				C152,50.4,152.5,49.8,152.5,49z"/>
			<path class="st1" d="M156.6,47.4c0.3-0.6,0.9-0.9,1.6-0.9v1.5c-0.9-0.1-1.5,0.4-1.6,1.1v2.6H155v-5h1.6V47.4z"/>
			<path class="st1" d="M163.7,49.5h-3.5c0.2,0.6,0.6,0.9,1.2,0.9c0.4,0,0.9-0.2,1.2-0.5l0.8,0.8c-0.5,0.6-1.3,0.9-2.2,0.9
				c-1.6,0-2.7-1-2.7-2.6c0-1.6,1.1-2.6,2.6-2.6C163,46.5,163.8,47.7,163.7,49.5z M162.2,48.6c0-0.6-0.4-1-1-1c-0.6,0-0.9,0.4-1,1
				H162.2z"/>
			<path class="st1" d="M168.5,47.1l-0.5,1c-0.6-0.3-1.2-0.5-1.6-0.5c-0.3,0-0.5,0.1-0.5,0.3c0,0.7,2.6,0.4,2.6,2.1
				c0,1-0.9,1.6-2.1,1.6c-0.8,0-1.6-0.2-2.3-0.7l0.5-1c0.6,0.4,1.2,0.6,1.8,0.6c0.3,0,0.5-0.1,0.5-0.3c0-0.7-2.6-0.4-2.6-2.1
				c0-1,0.9-1.6,2-1.6C167.1,46.5,167.9,46.7,168.5,47.1z"/>
			<path class="st1" d="M171.1,45.1c0,0.5-0.4,0.9-0.8,0.9c-0.5,0-0.8-0.4-0.8-0.9c0-0.5,0.4-0.8,0.8-0.8
				C170.7,44.3,171.1,44.6,171.1,45.1z M169.4,51.6v-5h1.6v5H169.4z"/>
			<path class="st1" d="M177.4,49.1c0,1.5-1.1,2.6-2.7,2.6c-1.6,0-2.7-1-2.7-2.6s1.1-2.6,2.7-2.6C176.3,46.5,177.4,47.5,177.4,49.1z
				 M173.5,49.1c0,0.8,0.5,1.3,1.1,1.3c0.7,0,1.1-0.5,1.1-1.3c0-0.8-0.5-1.3-1.1-1.3C174,47.8,173.5,48.3,173.5,49.1z M175.1,46
				h-1.2l1-1.6l1.5,0.5L175.1,46z"/>
			<path class="st1" d="M183.4,48.4v3.2h-1.6v-2.7c0-0.6-0.3-1-0.9-1c-0.6,0-1,0.4-1,1v2.7h-1.6v-5h1.6v0.8c0.4-0.6,0.9-0.9,1.7-0.9
				C182.7,46.5,183.4,47.2,183.4,48.4z"/>
			<path class="st1" d="M186.6,49.2v-1h2.5v1H186.6z"/>
			<path class="st1" d="M195.2,45.1c2,0,3.5,1.3,3.5,3.3c0,1.9-1.4,3.3-3.5,3.3h-2.7v-6.5H195.2z M194.1,50.3h1.2
				c1,0,1.7-0.8,1.7-1.9c0-1.1-0.8-1.9-1.8-1.9h-1.1V50.3z"/>
			<path class="st1" d="M201.2,45.1c0,0.5-0.4,0.9-0.8,0.9c-0.5,0-0.8-0.4-0.8-0.9c0-0.5,0.4-0.8,0.8-0.8
				C200.9,44.3,201.2,44.6,201.2,45.1z M199.6,51.6v-5h1.6v5H199.6z"/>
			<path class="st1" d="M206.3,47.1l-0.5,1c-0.6-0.3-1.2-0.5-1.6-0.5c-0.3,0-0.5,0.1-0.5,0.3c0,0.7,2.6,0.4,2.6,2.1
				c0,1-0.9,1.6-2.1,1.6c-0.8,0-1.6-0.2-2.3-0.7l0.5-1c0.6,0.4,1.2,0.6,1.8,0.6c0.3,0,0.5-0.1,0.5-0.3c0-0.7-2.6-0.4-2.6-2.1
				c0-1,0.9-1.6,2-1.6C205,46.5,205.7,46.7,206.3,47.1z"/>
			<path class="st1" d="M212,49.5h-3.5c0.2,0.6,0.6,0.9,1.2,0.9c0.4,0,0.9-0.2,1.2-0.5l0.8,0.8c-0.5,0.6-1.3,0.9-2.2,0.9
				c-1.6,0-2.7-1-2.7-2.6c0-1.6,1.1-2.6,2.6-2.6C211.2,46.5,212.1,47.7,212,49.5z M210.4,48.6c0-0.6-0.4-1-1-1c-0.6,0-0.9,0.4-1,1
				H210.4z"/>
			<path class="st1" d="M218,48.4v3.2h-1.6v-2.7c0-0.6-0.3-1-0.9-1c-0.6,0-1,0.4-1,1v2.7h-1.6v-5h1.6v0.8c0.4-0.6,0.9-0.9,1.7-0.9
				C217.3,46.5,218,47.2,218,48.4z M214.9,45.8h-1c0-1,0.3-1.5,1-1.5c0.5,0,0.8,0.4,1.1,0.4c0.2,0,0.3-0.1,0.3-0.4h1
				c0,1-0.3,1.4-1,1.4c-0.6,0-0.8-0.4-1.1-0.4C215,45.4,214.9,45.5,214.9,45.8z"/>
			<path class="st1" d="M224.3,49.1c0,1.5-1.1,2.6-2.7,2.6c-1.6,0-2.7-1-2.7-2.6s1.1-2.6,2.7-2.6C223.2,46.5,224.3,47.5,224.3,49.1z
				 M220.4,49.1c0,0.8,0.5,1.3,1.1,1.3c0.7,0,1.1-0.5,1.1-1.3c0-0.8-0.5-1.3-1.1-1.3C220.8,47.8,220.4,48.3,220.4,49.1z"/>
		</g>
	</g>
</g>
</svg>
